<mxfile host="app.diagrams.net" modified="2024-01-23T18:20:02.282Z" agent="Mozilla/5.0 (Windows NT 10.0; Win64; x64) AppleWebKit/537.36 (KHTML, like Gecko) Chrome/120.0.0.0 Safari/537.36 OPR/106.0.0.0" version="22.1.22" etag="AmJ3RafkBOO8j_vui6hk" type="github">
  <diagram name="PÃ¡gina-1" id="Ju7T9AEIUhfumeTAfuN7">
    <mxGraphModel>
      <root>
        <mxCell id="0" />
        <mxCell id="1" parent="0" />
      </root>
    </mxGraphModel>
  </diagram>
</mxfile>
